<?xml version="1.0" encoding="UTF-8"?>
<svg xmlns="http://www.w3.org/2000/svg" xmlns:xlink="http://www.w3.org/1999/xlink" width="3200" height="3200" viewBox="0 0 3200 3200">
<path fill-rule="nonzero" fill="rgb(19.993591%, 19.993591%, 19.993591%)" fill-opacity="1" d="M 1607.53125 1055.378906 C 1498.371094 1055.378906 1393.679688 1098.75 1316.5 1175.941406 C 1239.308594 1253.121094 1195.941406 1357.808594 1195.941406 1466.980469 C 1195.941406 1576.140625 1239.308594 1680.828125 1316.5 1758.011719 C 1393.679688 1835.199219 1498.371094 1878.570312 1607.53125 1878.570312 C 1716.699219 1878.570312 1821.390625 1835.199219 1898.570312 1758.011719 C 1975.761719 1680.828125 2019.128906 1576.140625 2019.128906 1466.980469 C 2019.128906 1357.808594 1975.761719 1253.121094 1898.570312 1175.941406 C 1821.390625 1098.75 1716.699219 1055.378906 1607.53125 1055.378906 Z M 1607.53125 1175.121094 C 1742.421875 1175.28125 1859.628906 1267.851562 1891.03125 1399.03125 L 1747.53125 1399.03125 C 1700.800781 1399.03125 1694.898438 1347.109375 1660.320312 1347.109375 L 1554.75 1347.109375 C 1520.179688 1347.109375 1514.269531 1399.03125 1467.539062 1399.03125 L 1324.039062 1399.03125 C 1355.441406 1267.851562 1472.648438 1175.28125 1607.53125 1175.121094 Z M 1607.53125 1408.78125 C 1641.621094 1408.78125 1669.25 1436.421875 1669.25 1470.5 C 1669.25 1504.589844 1641.621094 1532.21875 1607.53125 1532.21875 C 1573.449219 1532.21875 1545.820312 1504.589844 1545.820312 1470.5 C 1545.820312 1436.421875 1573.449219 1408.78125 1607.53125 1408.78125 Z M 1394.160156 1517.421875 C 1488.238281 1517.421875 1564.519531 1593.699219 1564.519531 1687.78125 C 1564.441406 1710.269531 1559.910156 1732.53125 1551.191406 1753.261719 C 1438.578125 1730.949219 1349.511719 1644.699219 1323.589844 1532.871094 C 1345.730469 1522.738281 1369.800781 1517.46875 1394.160156 1517.421875 Z M 1820.910156 1517.421875 C 1845.289062 1517.519531 1869.371094 1522.851562 1891.511719 1533.050781 C 1865.460938 1644.710938 1776.441406 1730.78125 1663.960938 1753.050781 C 1655.238281 1732.390625 1650.691406 1710.210938 1650.558594 1687.78125 C 1650.558594 1593.699219 1726.828125 1517.429688 1820.910156 1517.421875 "/>
<path fill-rule="nonzero" fill="rgb(100%, 68.554688%, 38.818359%)" fill-opacity="1" d="M 1795.980469 294.710938 L 1795.980469 294.738281 C 1766.96875 294.398438 1739.320312 306.890625 1720.378906 328.839844 L 1404.46875 688.808594 L 1509.25 436.460938 C 1536.300781 370.050781 1485.550781 297.960938 1413.929688 301 C 1374.441406 302.691406 1339.800781 327.789062 1325.949219 364.820312 L 1125.878906 861.019531 L 1125.878906 612.800781 C 1126.671875 557.328125 1081.480469 512.171875 1026 513.011719 C 971.679688 513.828125 928.296875 558.5 929.070312 612.800781 L 929.070312 1482.148438 C 929.070312 1662.289062 1001.308594 1835.101562 1129.539062 1962.261719 C 1257.78125 2089.429688 1431.558594 2160.75 1612.609375 2160.75 C 1793.660156 2160.75 1967.441406 2089.429688 2095.679688 1962.261719 C 2159.800781 1898.679688 2209.941406 1823.691406 2244.019531 1742.089844 C 2252.539062 1721.691406 2260.058594 1700.871094 2266.550781 1679.71875 C 2282.078125 1631.429688 2255.109375 1579.769531 2206.621094 1564.910156 C 2158.121094 1550.039062 2106.839844 1577.710938 2092.640625 1626.398438 C 2087.898438 1641.859375 2082.410156 1657.070312 2076.179688 1671.980469 C 2051.261719 1731.628906 2014.621094 1786.480469 1967.601562 1833.101562 C 1873.570312 1926.351562 1745.890625 1978.851562 1612.609375 1978.851562 C 1479.328125 1978.851562 1351.660156 1926.351562 1257.628906 1833.101562 C 1163.589844 1739.859375 1110.96875 1613.71875 1110.96875 1482.148438 C 1110.96875 1350.589844 1163.589844 1224.449219 1257.628906 1131.199219 C 1351.648438 1037.949219 1479.328125 985.449219 1612.609375 985.449219 C 1745.890625 985.449219 1873.570312 1037.949219 1967.601562 1131.199219 C 2014.621094 1177.820312 2051.261719 1232.671875 2076.179688 1292.320312 C 2082.410156 1307.230469 2087.898438 1322.441406 2092.640625 1337.898438 C 2106.839844 1386.589844 2158.121094 1414.261719 2206.621094 1399.398438 C 2255.109375 1384.53125 2282.078125 1332.871094 2266.550781 1284.589844 C 2260.058594 1263.429688 2252.539062 1242.621094 2244.019531 1222.210938 C 2209.941406 1140.609375 2159.800781 1065.621094 2095.679688 1002.039062 C 1967.441406 874.878906 1793.660156 803.550781 1612.609375 803.550781 C 1596.429688 803.550781 1580.308594 804.128906 1564.269531 805.261719 L 1867.570312 459.488281 C 1924.910156 396.710938 1881 295.628906 1795.980469 294.71875 "/>
<path fill-rule="nonzero" fill="rgb(0%, 0%, 0%)" fill-opacity="1" d="M 1610.871094 795.019531 C 1630.769531 795.128906 1650.671875 796.121094 1670.488281 797.980469 C 1665.46875 797.511719 1660.441406 797.078125 1655.390625 796.71875 L 1654.480469 796.671875 C 1640.058594 795.660156 1625.519531 795.101562 1610.871094 795.019531 "/>
<path fill-rule="nonzero" fill="rgb(0%, 0%, 0%)" fill-opacity="1" d="M 1689.300781 800.011719 C 1701.03125 801.460938 1712.710938 803.210938 1724.339844 805.261719 C 1712.761719 803.210938 1701.078125 801.449219 1689.300781 800.011719 "/>
<path fill-rule="nonzero" fill="rgb(19.993591%, 19.993591%, 19.993591%)" fill-opacity="1" d="M 807.851562 2267.742188 C 741.367188 2267.742188 705.046875 2307.140625 705.046875 2376.089844 L 705.046875 2602.632812 C 705.046875 2671.578125 741.367188 2710.980469 807.851562 2710.980469 C 874.335938 2710.980469 910.660156 2671.578125 910.660156 2602.632812 L 910.660156 2376.089844 C 910.660156 2307.140625 874.335938 2267.742188 807.851562 2267.742188 Z M 956.457031 2273.898438 L 956.457031 2704.824219 L 1024.171875 2704.824219 L 1024.171875 2567.542969 L 1051.261719 2512.753906 L 1108.511719 2704.824219 L 1179.300781 2704.824219 L 1097.429688 2432.109375 L 1178.070312 2273.898438 L 1110.359375 2273.898438 L 1024.171875 2455.503906 L 1024.171875 2273.898438 Z M 807.851562 2329.304688 C 829.398438 2329.304688 842.941406 2341 842.941406 2371.777344 L 842.941406 2606.941406 C 842.941406 2637.722656 829.398438 2649.417969 807.851562 2649.417969 C 786.304688 2649.417969 772.765625 2637.722656 772.765625 2606.941406 L 772.765625 2371.777344 C 772.765625 2341 786.304688 2329.304688 807.851562 2329.304688 "/>
<path fill-rule="nonzero" fill="rgb(19.993591%, 19.993591%, 19.993591%)" fill-opacity="1" d="M 1211.359375 2273.898438 L 1211.359375 2704.824219 L 1314.78125 2704.824219 C 1382.5 2704.824219 1415.738281 2667.269531 1415.738281 2598.324219 L 1415.738281 2380.398438 C 1415.738281 2311.449219 1382.5 2273.898438 1314.78125 2273.898438 Z M 1461.449219 2273.898438 L 1461.449219 2704.824219 L 1529.160156 2704.824219 L 1529.160156 2520.140625 L 1552.558594 2520.140625 C 1583.339844 2520.140625 1595.03125 2533.066406 1595.03125 2573.082031 L 1595.03125 2651.882812 C 1595.03125 2686.972656 1597.488281 2693.742188 1601.191406 2704.824219 L 1670.140625 2704.824219 C 1663.359375 2688.816406 1662.75 2673.429688 1662.75 2652.496094 L 1662.75 2576.777344 C 1662.75 2528.144531 1651.671875 2496.132812 1617.808594 2485.664062 L 1617.808594 2484.4375 C 1647.96875 2472.121094 1662.128906 2443.804688 1662.128906 2399.480469 L 1662.128906 2373.011719 C 1662.128906 2306.523438 1631.96875 2273.898438 1561.789062 2273.898438 Z M 1709.128906 2273.898438 L 1709.128906 2704.824219 L 1776.851562 2704.824219 L 1776.851562 2273.898438 Z M 1809.109375 2273.898438 L 1874.359375 2704.824219 L 1964.238281 2704.824219 L 2029.5 2273.898438 L 1967.320312 2273.898438 L 1923 2608.171875 L 1921.769531 2608.171875 L 1877.441406 2273.898438 Z M 2062.628906 2273.898438 L 2062.628906 2704.824219 L 2247.308594 2704.824219 L 2247.308594 2643.261719 L 2130.339844 2643.261719 L 2130.339844 2510.90625 L 2223.300781 2510.90625 L 2223.300781 2449.347656 L 2130.339844 2449.347656 L 2130.339844 2335.457031 L 2247.308594 2335.457031 L 2247.308594 2273.898438 Z M 2286.261719 2273.898438 L 2286.261719 2704.824219 L 2353.980469 2704.824219 L 2353.980469 2520.140625 L 2377.371094 2520.140625 C 2408.148438 2520.140625 2419.851562 2533.066406 2419.851562 2573.082031 L 2419.851562 2651.882812 C 2419.851562 2686.972656 2422.308594 2693.742188 2426.011719 2704.824219 L 2494.949219 2704.824219 C 2488.179688 2688.816406 2487.570312 2673.429688 2487.570312 2652.496094 L 2487.570312 2576.777344 C 2487.570312 2528.144531 2476.480469 2496.132812 2442.628906 2485.664062 L 2442.628906 2484.4375 C 2472.789062 2472.121094 2486.949219 2443.804688 2486.949219 2399.480469 L 2486.949219 2373.011719 C 2486.949219 2306.523438 2456.789062 2273.898438 2386.609375 2273.898438 Z M 1279.070312 2335.457031 L 1313.550781 2335.457031 C 1335.089844 2335.457031 1348.019531 2346.539062 1348.019531 2377.320312 L 1348.019531 2601.402344 C 1348.019531 2632.183594 1335.089844 2643.261719 1313.550781 2643.261719 L 1279.070312 2643.261719 Z M 1529.160156 2335.457031 L 1559.941406 2335.457031 C 1583.949219 2335.457031 1594.421875 2349.003906 1594.421875 2379.78125 L 1594.421875 2413.023438 C 1594.421875 2447.5 1579.03125 2458.578125 1553.789062 2458.578125 L 1529.160156 2458.578125 Z M 2353.980469 2335.457031 L 2384.761719 2335.457031 C 2408.769531 2335.457031 2419.230469 2349.003906 2419.230469 2379.78125 L 2419.230469 2413.023438 C 2419.230469 2447.5 2403.839844 2458.578125 2378.601562 2458.578125 L 2353.980469 2458.578125 L 2353.980469 2335.457031 "/>
<path fill-rule="nonzero" fill="rgb(19.993591%, 19.993591%, 19.993591%)" fill-opacity="1" d="M 1019.800781 2816.882812 C 1006.621094 2816.882812 995.660156 2821.109375 986.949219 2829.578125 C 978.320312 2838.042969 974.015625 2848.625 974.015625 2861.324219 C 974.015625 2874.023438 978.242188 2884.527344 986.707031 2892.828125 C 995.257812 2901.132812 1005.960938 2905.285156 1018.820312 2905.285156 C 1031.769531 2905.285156 1042.761719 2900.273438 1051.789062 2890.257812 L 1042.511719 2880.738281 C 1038.601562 2884.402344 1034.859375 2887.085938 1031.28125 2888.796875 C 1027.699219 2890.425781 1023.421875 2891.242188 1018.449219 2891.242188 C 1010.480469 2891.242188 1003.558594 2888.347656 997.703125 2882.566406 C 991.921875 2876.707031 989.027344 2869.460938 989.027344 2860.832031 C 989.027344 2852.121094 991.957031 2845 997.816406 2839.464844 C 1003.679688 2833.847656 1010.929688 2831.039062 1019.550781 2831.039062 C 1024.441406 2831.039062 1028.679688 2831.8125 1032.261719 2833.359375 C 1035.921875 2834.90625 1039.789062 2837.636719 1043.859375 2841.542969 L 1053.011719 2831.53125 C 1044.140625 2821.761719 1033.070312 2816.882812 1019.800781 2816.882812 Z M 1295.359375 2816.882812 C 1282.660156 2816.882812 1271.988281 2821.109375 1263.359375 2829.578125 C 1254.730469 2837.960938 1250.421875 2848.464844 1250.421875 2861.082031 C 1250.421875 2873.617188 1254.730469 2884.113281 1263.359375 2892.578125 C 1271.988281 2900.964844 1282.660156 2905.160156 1295.359375 2905.160156 C 1308.058594 2905.160156 1318.71875 2900.964844 1327.351562 2892.578125 C 1335.96875 2884.113281 1340.289062 2873.617188 1340.289062 2861.082031 C 1340.289062 2848.464844 1335.96875 2837.960938 1327.351562 2829.578125 C 1318.71875 2821.109375 1308.058594 2816.882812 1295.359375 2816.882812 Z M 1600.910156 2816.882812 C 1592.441406 2816.882812 1585.320312 2819.035156 1579.539062 2823.347656 C 1573.851562 2827.582031 1571 2833.644531 1571 2841.542969 C 1571 2849.4375 1573.519531 2855.304688 1578.558594 2859.128906 C 1581.089844 2861.164062 1583.980469 2862.832031 1587.238281 2864.132812 C 1590.488281 2865.355469 1595.25 2866.738281 1601.519531 2868.28125 C 1607.789062 2869.746094 1612.179688 2871.414062 1614.710938 2873.289062 C 1617.308594 2875.078125 1618.621094 2877.640625 1618.621094 2880.980469 C 1618.621094 2884.234375 1617.230469 2886.886719 1614.460938 2888.921875 C 1611.769531 2890.875 1608.121094 2891.847656 1603.480469 2891.847656 C 1594.191406 2891.847656 1585.238281 2888.105469 1576.609375 2880.613281 L 1567.570312 2891.480469 C 1577.910156 2900.679688 1589.761719 2905.285156 1603.109375 2905.285156 C 1612.230469 2905.285156 1619.589844 2902.957031 1625.210938 2898.316406 C 1630.828125 2893.675781 1633.628906 2887.65625 1633.628906 2880.246094 C 1633.628906 2872.757812 1631.390625 2867.105469 1626.910156 2863.277344 C 1622.519531 2859.453125 1615.921875 2856.480469 1607.128906 2854.363281 C 1598.421875 2852.246094 1592.71875 2850.292969 1590.039062 2848.503906 C 1587.351562 2846.628906 1586.011719 2843.980469 1586.011719 2840.5625 C 1586.011719 2837.058594 1587.351562 2834.464844 1590.039062 2832.753906 C 1592.71875 2831.046875 1596.148438 2830.183594 1600.300781 2830.183594 C 1604.53125 2830.183594 1608.800781 2830.921875 1613.121094 2832.386719 C 1617.429688 2833.851562 1620.851562 2835.722656 1623.371094 2838 L 1631.070312 2827.132812 C 1627.160156 2823.875 1622.53125 2821.355469 1617.148438 2819.566406 C 1611.78125 2817.773438 1606.359375 2816.882812 1600.910156 2816.882812 Z M 1757.78125 2816.882812 C 1745.078125 2816.882812 1734.421875 2821.109375 1725.789062 2829.578125 C 1717.160156 2837.960938 1712.851562 2848.464844 1712.851562 2861.082031 C 1712.851562 2873.617188 1717.160156 2884.113281 1725.789062 2892.578125 C 1734.421875 2900.964844 1745.078125 2905.160156 1757.78125 2905.160156 C 1770.480469 2905.160156 1781.148438 2900.964844 1789.78125 2892.578125 C 1798.410156 2884.113281 1802.710938 2873.617188 1802.710938 2861.082031 C 1802.710938 2848.464844 1798.410156 2837.960938 1789.78125 2829.578125 C 1781.148438 2821.109375 1770.480469 2816.882812 1757.78125 2816.882812 Z M 1859.839844 2816.882812 C 1847.550781 2816.882812 1837.050781 2821.109375 1828.339844 2829.578125 C 1819.710938 2838.042969 1815.398438 2848.625 1815.398438 2861.324219 C 1815.398438 2874.023438 1819.628906 2884.527344 1828.101562 2892.828125 C 1836.640625 2901.132812 1847.230469 2905.285156 1859.839844 2905.285156 C 1874.820312 2905.285156 1886.339844 2900.847656 1894.398438 2891.972656 L 1894.398438 2862.785156 L 1879.988281 2862.785156 L 1879.988281 2886.234375 C 1874.539062 2889.734375 1867.75 2891.480469 1859.601562 2891.480469 C 1851.550781 2891.480469 1844.671875 2888.753906 1838.96875 2883.300781 C 1833.269531 2877.765625 1830.421875 2870.484375 1830.421875 2861.449219 C 1830.421875 2852.332031 1833.351562 2845 1839.210938 2839.464844 C 1845.070312 2833.847656 1852.308594 2831.039062 1860.941406 2831.039062 C 1865.421875 2831.039062 1869.328125 2831.613281 1872.671875 2832.753906 C 1876.078125 2833.8125 1879.460938 2835.757812 1882.800781 2838.605469 L 1890.488281 2827.621094 C 1882.351562 2820.460938 1872.140625 2816.882812 1859.839844 2816.882812 Z M 736.25 2818.949219 L 736.25 2904.304688 L 750.660156 2904.304688 L 750.660156 2879.277344 L 765.800781 2879.277344 C 778.339844 2879.277344 787.617188 2876.867188 793.640625 2872.066406 C 799.746094 2867.261719 802.796875 2859.695312 802.796875 2849.359375 C 802.796875 2839.019531 799.824219 2831.367188 793.882812 2826.398438 C 787.9375 2821.433594 778.496094 2818.949219 765.554688 2818.949219 Z M 819.71875 2818.949219 L 819.71875 2904.304688 L 873.074219 2904.304688 L 873.074219 2890.625 L 834.128906 2890.625 L 834.128906 2818.949219 Z M 914.648438 2818.949219 L 877.039062 2904.304688 L 892.421875 2904.304688 L 900.972656 2884.886719 L 943.710938 2884.886719 L 952.257812 2904.304688 L 967.640625 2904.304688 L 930.03125 2818.949219 Z M 1069.421875 2818.949219 L 1069.421875 2904.304688 L 1130.839844 2904.304688 L 1130.839844 2890.75 L 1083.828125 2890.75 L 1083.828125 2867.917969 L 1124.730469 2867.917969 L 1124.730469 2855.097656 L 1083.828125 2855.097656 L 1083.828125 2832.503906 L 1129.371094 2832.503906 L 1129.371094 2818.949219 Z M 1169.871094 2818.949219 L 1201.628906 2870.601562 L 1201.628906 2904.304688 L 1216.28125 2904.304688 L 1216.28125 2870.601562 L 1248.03125 2818.949219 L 1232.28125 2818.949219 L 1208.949219 2857.78125 L 1185.628906 2818.949219 Z M 1357.371094 2818.949219 L 1357.371094 2866.820312 C 1357.371094 2879.113281 1360.75 2888.589844 1367.511719 2895.265625 C 1374.261719 2901.859375 1382.929688 2905.160156 1393.511719 2905.160156 C 1404.101562 2905.160156 1412.761719 2901.859375 1419.511719 2895.265625 C 1426.269531 2888.589844 1429.648438 2879.113281 1429.648438 2866.820312 L 1429.648438 2818.949219 L 1415.238281 2818.949219 L 1415.238281 2866.203125 C 1415.238281 2874.019531 1413.289062 2880.203125 1409.390625 2884.761719 C 1405.480469 2889.320312 1400.191406 2891.605469 1393.511719 2891.605469 C 1386.839844 2891.605469 1381.539062 2889.320312 1377.628906 2884.761719 C 1373.71875 2880.203125 1371.78125 2874.019531 1371.78125 2866.203125 L 1371.78125 2818.949219 Z M 1452.199219 2818.949219 L 1452.199219 2904.304688 L 1466.601562 2904.304688 L 1466.601562 2875.609375 L 1485.53125 2875.609375 L 1505.910156 2904.304688 L 1524.230469 2904.304688 L 1501.878906 2873.289062 C 1514.179688 2869.625 1520.328125 2860.757812 1520.328125 2846.671875 C 1520.328125 2836.984375 1517.519531 2829.941406 1511.898438 2825.542969 C 1506.289062 2821.148438 1496.96875 2818.949219 1483.941406 2818.949219 Z M 1651.570312 2818.949219 L 1651.570312 2904.304688 L 1704.921875 2904.304688 L 1704.921875 2890.625 L 1665.980469 2890.625 L 1665.980469 2818.949219 Z M 1938.238281 2818.949219 L 1900.628906 2904.304688 L 1916.011719 2904.304688 L 1924.558594 2884.886719 L 1967.300781 2884.886719 L 1975.851562 2904.304688 L 1991.230469 2904.304688 L 1953.621094 2818.949219 Z M 2003.101562 2818.949219 L 2003.101562 2904.304688 L 2017.511719 2904.304688 L 2017.511719 2842.03125 L 2065.859375 2904.304688 L 2081.488281 2904.304688 L 2081.488281 2818.949219 L 2067.078125 2818.949219 L 2067.078125 2882.691406 L 2017.511719 2818.949219 Z M 2138.558594 2818.949219 L 2138.558594 2904.304688 L 2152.960938 2904.304688 L 2152.960938 2869.378906 L 2195.339844 2869.378906 L 2195.339844 2904.304688 L 2209.75 2904.304688 L 2209.75 2818.949219 L 2195.339844 2818.949219 L 2195.339844 2855.953125 L 2152.960938 2855.953125 L 2152.960938 2818.949219 Z M 2233.480469 2818.949219 L 2233.480469 2904.304688 L 2294.898438 2904.304688 L 2294.898438 2890.75 L 2247.890625 2890.75 L 2247.890625 2867.917969 L 2288.789062 2867.917969 L 2288.789062 2855.097656 L 2247.890625 2855.097656 L 2247.890625 2832.503906 L 2293.441406 2832.503906 L 2293.441406 2818.949219 Z M 2313.371094 2818.949219 L 2313.371094 2904.304688 L 2327.78125 2904.304688 L 2327.78125 2875.609375 L 2346.710938 2875.609375 L 2367.101562 2904.304688 L 2385.410156 2904.304688 L 2363.070312 2873.289062 C 2375.359375 2869.625 2381.511719 2860.757812 2381.511719 2846.671875 C 2381.511719 2836.984375 2378.699219 2829.941406 2373.078125 2825.542969 C 2367.460938 2821.148438 2358.140625 2818.949219 2345.121094 2818.949219 Z M 2402.328125 2818.949219 L 2402.328125 2904.304688 L 2463.75 2904.304688 L 2463.75 2890.75 L 2416.738281 2890.75 L 2416.738281 2867.917969 L 2457.648438 2867.917969 L 2457.648438 2855.097656 L 2416.738281 2855.097656 L 2416.738281 2832.503906 L 2462.289062 2832.503906 L 2462.289062 2818.949219 Z M 1295.359375 2830.066406 C 1303.820312 2830.066406 1310.949219 2833.074219 1316.730469 2839.097656 C 1322.589844 2845.121094 1325.511719 2852.453125 1325.511719 2861.082031 C 1325.511719 2869.628906 1322.589844 2876.910156 1316.730469 2882.933594 C 1310.949219 2888.957031 1303.820312 2891.972656 1295.359375 2891.972656 C 1286.890625 2891.972656 1279.71875 2888.957031 1273.859375 2882.933594 C 1268.078125 2876.910156 1265.199219 2869.628906 1265.199219 2861.082031 C 1265.199219 2852.453125 1268.078125 2845.121094 1273.859375 2839.097656 C 1279.71875 2833.074219 1286.890625 2830.066406 1295.359375 2830.066406 Z M 1757.78125 2830.066406 C 1766.238281 2830.066406 1773.371094 2833.074219 1779.148438 2839.097656 C 1785.011719 2845.121094 1787.949219 2852.453125 1787.949219 2861.082031 C 1787.949219 2869.628906 1785.011719 2876.910156 1779.148438 2882.933594 C 1773.371094 2888.957031 1766.238281 2891.972656 1757.78125 2891.972656 C 1749.308594 2891.972656 1742.160156 2888.957031 1736.289062 2882.933594 C 1730.511719 2876.910156 1727.621094 2869.628906 1727.621094 2861.082031 C 1727.621094 2852.453125 1730.511719 2845.121094 1736.289062 2839.097656 C 1742.160156 2833.074219 1749.308594 2830.066406 1757.78125 2830.066406 Z M 750.660156 2832.011719 L 765.3125 2832.011719 C 773.128906 2832.011719 778.859375 2833.238281 782.519531 2835.679688 C 786.1875 2838.121094 788.019531 2842.316406 788.019531 2848.261719 C 788.019531 2854.121094 786.5625 2858.597656 783.632812 2861.6875 C 780.78125 2864.703125 775.359375 2866.203125 767.378906 2866.203125 L 750.660156 2866.203125 Z M 1466.601562 2832.011719 L 1484.910156 2832.011719 C 1492.640625 2832.011719 1498.019531 2833.074219 1501.039062 2835.1875 C 1504.050781 2837.222656 1505.550781 2841.054688 1505.550781 2846.671875 C 1505.550781 2852.210938 1504.078125 2856.238281 1501.148438 2858.761719 C 1498.21875 2861.285156 1492.691406 2862.546875 1484.550781 2862.546875 L 1466.601562 2862.546875 Z M 2327.78125 2832.011719 L 2346.089844 2832.011719 C 2353.820312 2832.011719 2359.199219 2833.074219 2362.21875 2835.1875 C 2365.230469 2837.222656 2366.730469 2841.054688 2366.730469 2846.671875 C 2366.730469 2852.210938 2365.269531 2856.238281 2362.339844 2858.761719 C 2359.410156 2861.285156 2353.871094 2862.546875 2345.730469 2862.546875 L 2327.78125 2862.546875 Z M 922.34375 2836.410156 L 937.847656 2871.574219 L 906.832031 2871.574219 Z M 1945.929688 2836.410156 L 1961.441406 2871.574219 L 1930.421875 2871.574219 L 1945.929688 2836.410156 "/>
</svg>
